<?xml version="1.0" standalone="no"?>
<!DOCTYPE svg PUBLIC "-//W3C//DTD SVG 20010904//EN"
 "http://www.w3.org/TR/2001/REC-SVG-20010904/DTD/svg10.dtd">
<svg version="1.0" xmlns="http://www.w3.org/2000/svg"
 width="700.000000pt" height="400.000000pt" viewBox="0 0 700.000000 400.000000"
 preserveAspectRatio="xMidYMid meet">
<metadata>
Created by potrace 1.16, written by Peter Selinger 2001-2019
</metadata>
<g transform="translate(0.000000,400.000000) scale(0.100000,-0.100000)"
fill="#000000" stroke="none">
<path d="M3033 3825 c-12 -14 -20 -32 -17 -39 3 -8 1 -17 -5 -21 -7 -4 -8 0
-4 11 4 11 2 15 -4 11 -16 -10 -53 -85 -53 -107 0 -10 -4 -21 -9 -25 -18 -11
-22 -61 -6 -91 18 -35 21 -228 4 -271 -6 -15 -15 -37 -20 -48 -5 -11 -13 -32
-19 -47 -5 -16 -15 -28 -21 -28 -6 0 -9 -7 -6 -15 4 -8 -12 -36 -38 -66 -24
-28 -47 -66 -51 -82 -3 -17 -12 -39 -18 -49 -8 -13 -8 -23 2 -38 19 -31 15
-70 -6 -70 -10 0 -264 16 -563 35 -299 19 -549 35 -556 35 -7 0 -15 -16 -19
-35 -3 -20 -12 -35 -20 -35 -10 0 -13 -10 -12 -32 3 -28 -1 -34 -20 -36 -34
-5 -37 -26 -12 -95 19 -52 22 -74 17 -142 -7 -96 -13 -115 -39 -115 -16 0 -19
-5 -13 -28 l6 -28 -71 9 c-39 5 -74 6 -78 2 -4 -4 28 -74 72 -157 l79 -150 -7
-144 c-3 -79 -8 -178 -11 -221 -3 -43 -12 -199 -20 -348 -9 -148 -20 -348 -25
-444 -6 -100 -16 -185 -23 -200 -11 -23 -18 -26 -60 -23 -50 3 -53 -1 -37 -44
8 -21 14 -24 22 -16 28 28 88 10 88 -25 l0 -25 88 3 c110 5 128 -14 22 -22
l-75 -5 75 -2 75 -2 -29 -23 c-34 -28 -32 -60 4 -67 18 -3 25 -11 25 -25 -4
-62 -2 -60 -58 -63 -59 -3 -109 -11 -116 -18 -2 -2 35 -4 82 -4 80 0 87 -2 87
-20 0 -17 -7 -20 -42 -21 -24 0 -37 -3 -30 -6 8 -3 44 -2 80 3 37 4 59 9 50
11 -10 3 -18 9 -18 14 0 5 0 12 0 17 0 19 35 5 38 -16 3 -16 8 -22 19 -18 8 3
16 6 19 6 2 0 0 10 -5 23 l-9 22 136 0 c87 0 136 4 139 11 2 7 18 8 41 5 33
-6 37 -10 40 -40 5 -52 -5 -77 -35 -90 -16 -6 -140 -15 -286 -20 -142 -5 -261
-12 -265 -16 -4 -4 70 -5 163 -1 395 14 459 15 435 7 -14 -5 -54 -10 -90 -11
-36 -1 -73 -5 -83 -9 -10 -4 41 -5 113 -3 l131 4 -3 -48 -3 -49 -150 -7 c-193
-9 -222 -16 -70 -16 240 -1 223 2 217 -29 -2 -16 -11 -36 -20 -45 -14 -17 -12
-18 26 -18 42 0 42 0 42 38 0 36 14 62 32 62 4 0 7 -21 5 -47 l-2 -48 40 -3
c32 -3 38 -1 28 9 -7 7 -13 30 -13 50 l0 37 83 6 c94 7 374 19 429 19 20 0 35
4 33 8 -3 4 3 13 12 20 14 12 16 12 11 -1 -4 -12 2 -17 25 -18 29 -2 30 -2 13
11 -15 11 -17 17 -7 35 6 12 15 21 19 21 20 -3 42 2 42 10 0 5 -9 7 -20 4 -11
-3 -20 0 -20 6 0 6 4 11 9 11 5 0 22 18 39 40 l29 40 1 -35 c1 -19 -5 -41 -13
-49 -20 -19 -19 -27 1 -19 14 5 16 1 10 -30 -6 -35 -5 -37 19 -37 15 0 25 -6
25 -14 0 -14 -70 -25 -202 -31 -29 -1 -73 -5 -98 -8 -25 -3 -92 -8 -150 -12
-172 -11 -194 -25 -30 -19 493 16 487 16 493 -6 4 -17 0 -20 -31 -21 -21 -1
-118 -7 -217 -14 l-180 -13 185 4 c194 5 330 13 343 21 4 2 7 -1 7 -7 0 -6 8
-10 17 -8 19 3 42 80 43 139 0 21 7 42 16 49 20 18 45 77 38 94 -3 7 2 16 10
19 20 8 20 -8 2 -59 -10 -30 -11 -55 -3 -108 l10 -68 47 6 c62 8 150 14 345
21 162 6 180 9 170 26 -4 5 5 9 19 9 24 0 26 4 26 40 0 40 13 53 24 24 3 -9 6
-27 6 -40 0 -32 14 -31 29 2 14 32 16 30 25 -19 6 -34 4 -40 -37 -82 -25 -25
-50 -45 -56 -45 -6 0 -11 -4 -11 -10 0 -15 133 -13 149 3 11 9 14 9 18 0 3 -7
9 -13 15 -13 6 0 8 18 4 48 l-5 47 18 -50 c13 -34 20 -43 20 -27 1 15 5 21 13
16 7 -4 2 6 -10 23 -26 37 -27 44 -6 36 14 -5 15 3 9 62 -3 38 -16 87 -27 109
-35 67 -55 147 -52 206 2 45 -1 59 -19 79 -12 13 -16 21 -8 16 11 -6 13 -4 8
7 -11 30 36 7 76 -36 26 -28 34 -33 26 -17 -6 14 -16 30 -21 35 -27 33 -57 80
-53 85 3 2 12 -4 20 -15 13 -17 14 -18 15 -1 0 10 -11 22 -26 27 -33 13 -37
13 -31 -4 4 -9 -2 -14 -19 -14 -15 0 -24 6 -24 15 0 9 6 13 14 10 10 -4 13 -1
10 8 -6 15 9 21 82 30 51 6 51 6 68 -28 9 -19 16 -41 16 -49 0 -7 10 -22 22
-32 l21 -18 -6 54 c-6 50 -5 56 18 76 46 40 84 20 100 -53 13 -59 17 -65 36
-65 10 0 19 -5 19 -11 0 -5 -4 -8 -9 -4 -5 3 -12 1 -16 -5 -3 -5 5 -12 18 -15
36 -9 102 -2 102 12 0 6 3 15 8 19 4 4 7 -1 7 -12 0 -10 7 -32 15 -48 28 -53
21 -66 -37 -68 -102 -3 -118 -5 -126 -12 -4 -5 50 -6 121 -4 115 3 127 1 127
-14 0 -10 -13 -32 -29 -51 -19 -21 -27 -38 -21 -46 11 -18 26 -7 56 41 24 38
49 148 34 148 -4 0 -7 21 -7 48 -1 26 1 38 4 28 3 -11 16 -31 29 -45 13 -14
24 -31 24 -38 0 -6 5 -15 11 -19 19 -11 2 40 -26 82 -14 20 -25 45 -25 56 0
10 -7 21 -15 24 -8 4 -15 12 -15 19 0 7 -7 15 -15 19 -8 3 -15 15 -15 28 l0
22 21 -23 c12 -12 27 -20 34 -17 8 3 13 -4 13 -18 0 -41 22 -95 37 -90 8 4 15
-3 17 -18 l5 -23 11 25 c7 17 11 19 11 8 1 -11 7 -15 21 -11 18 5 20 0 22 -38
1 -24 1 -54 0 -67 0 -15 5 -22 18 -22 19 0 19 22 -1 65 -5 12 -6 32 0 50 l8
30 12 -29 c7 -16 10 -35 7 -42 -3 -7 2 -15 10 -18 8 -3 14 -15 14 -26 0 -11 7
-23 15 -27 24 -8 30 5 13 24 -26 29 -55 125 -40 130 14 5 16 33 2 33 -5 0 -10
-4 -10 -8 0 -5 -13 -7 -30 -4 -27 4 -30 8 -30 38 0 22 -5 34 -14 34 -7 0 -20
8 -27 17 -10 11 -10 14 -1 9 7 -4 12 -2 12 8 0 8 -8 20 -17 25 -16 9 -16 10 3
11 12 0 24 -7 28 -15 8 -21 36 -19 37 3 0 10 3 12 6 5 2 -7 11 -13 18 -13 14
0 29 -43 16 -48 -4 -1 -6 -15 -3 -30 l6 -27 6 30 5 30 93 3 c57 2 91 -1 88 -7
-9 -14 4 -41 21 -41 7 0 13 -6 11 -13 -1 -6 2 -34 6 -60 5 -33 4 -53 -5 -63
-10 -12 -9 -13 5 -8 13 5 15 1 10 -27 l-6 -34 19 23 c14 17 21 20 30 11 8 -8
11 -7 10 7 -1 11 7 20 23 25 16 4 19 7 8 8 -19 1 -26 21 -8 21 6 0 10 5 10 11
0 5 -5 7 -11 4 -6 -4 -13 2 -16 14 -3 12 -12 21 -19 21 -8 0 -14 4 -14 9 0 10
32 7 49 -3 5 -4 11 -2 13 2 1 5 15 12 31 16 33 8 42 -10 53 -103 4 -42 11 -61
20 -61 10 0 14 14 14 46 0 25 4 43 9 39 5 -3 9 10 8 29 -1 23 -6 32 -15 28
-10 -3 -13 3 -10 24 2 21 -1 29 -12 29 -9 0 -14 -7 -12 -19 3 -17 2 -18 -12
-7 -18 15 -22 51 -6 51 6 0 10 7 10 15 0 8 -5 15 -11 15 -16 0 -41 28 -30 34
5 3 11 -1 15 -9 3 -8 17 -15 31 -15 20 0 25 -5 25 -25 0 -22 4 -25 39 -25 29
0 41 -5 44 -17 4 -17 5 -17 6 0 0 9 8 17 16 17 9 0 29 7 45 15 17 9 30 11 30
5 0 -5 -4 -10 -9 -10 -12 0 -22 -82 -11 -95 6 -7 -1 -15 -20 -23 -19 -9 -35
-29 -49 -62 -12 -27 -21 -53 -21 -59 0 -6 -8 -11 -17 -12 -30 -1 -55 -7 -61
-15 -4 -4 1 -4 10 -1 10 3 20 2 23 -3 3 -5 12 -7 21 -3 12 4 10 -4 -6 -36
l-22 -41 42 -52 c34 -44 40 -58 38 -90 l-3 -39 -129 -5 c-71 -2 -170 -9 -220
-14 -50 -5 -127 -10 -171 -10 -74 0 -130 -5 -350 -30 l-80 -9 100 5 c218 11
557 25 687 29 76 2 142 6 147 9 16 10 24 -13 23 -68 0 -37 2 -45 8 -31 7 17 9
17 9 3 1 -16 15 -18 150 -18 110 0 151 3 154 13 4 9 6 9 6 0 1 -7 12 -13 26
-13 22 0 25 4 25 35 0 19 4 35 9 35 15 0 19 36 6 53 -7 9 -10 28 -7 42 2 14 0
31 -5 38 -6 6 -13 32 -16 57 -3 25 -9 54 -13 65 -5 12 -4 16 3 12 11 -7 23 23
23 59 0 13 8 24 19 27 18 4 18 7 -5 78 -13 40 -28 77 -34 83 -5 5 -10 20 -10
33 0 13 -3 23 -7 23 -5 0 -16 14 -25 30 -9 17 -24 30 -33 30 -21 0 -39 19 -43
45 -2 19 -2 19 12 2 13 -17 15 -17 31 5 16 23 16 23 31 3 14 -18 26 -20 142
-20 207 1 352 7 352 15 0 11 33 7 42 -5 4 -5 4 -14 0 -20 -4 -5 -7 -26 -7 -45
0 -38 6 -35 -128 -54 -40 -6 -52 -13 -67 -39 l-20 -32 23 -18 c18 -15 18 -17
2 -9 -17 9 -28 2 -77 -49 -32 -33 -58 -67 -58 -77 0 -19 34 -55 61 -65 21 -7
41 -101 25 -118 -8 -9 -8 -10 1 -5 16 9 21 -2 28 -58 3 -26 10 -57 16 -68 6
-12 9 -36 6 -54 l-6 -34 269 0 270 0 -10 26 c-6 14 -10 36 -10 50 0 17 -5 24
-20 24 -11 0 -20 5 -20 10 0 6 5 10 10 10 6 0 10 5 10 10 0 6 -8 10 -17 10
-14 0 -15 2 -4 9 7 5 10 14 7 20 -4 6 -10 35 -12 63 -3 28 -18 83 -34 122 -17
39 -30 75 -30 81 1 21 40 -38 40 -60 0 -18 35 -119 47 -134 2 -3 9 1 15 7 9 9
9 12 0 12 -9 0 -11 13 -6 48 5 42 3 50 -21 76 -23 25 -55 83 -55 99 0 2 10 2
23 0 30 -6 65 20 50 38 -5 8 -13 25 -15 39 -3 14 -9 33 -13 44 -6 14 -4 17 10
15 19 -4 21 -11 31 -101 6 -50 5 -58 -10 -58 -9 0 -16 -3 -16 -7 0 -5 27 -8
60 -9 59 -1 60 -1 60 26 0 15 3 30 7 33 3 4 5 36 4 72 -2 41 2 65 8 65 6 0 12
-13 12 -30 1 -16 2 -33 3 -37 1 -5 5 -25 9 -45 8 -38 8 -38 57 -38 46 0 50 2
50 23 0 43 -23 142 -36 158 -8 8 -14 20 -14 26 0 6 -7 16 -15 23 -9 7 -14 19
-11 25 2 7 -2 23 -11 35 -14 19 -13 23 3 35 13 9 16 17 9 23 -14 14 -91 22
-102 11 -6 -6 -15 -4 -23 6 -17 20 -27 19 -40 -6 -15 -28 5 -56 27 -37 25 20
53 -23 51 -78 -2 -42 -4 -44 -33 -43 -26 0 -27 2 -10 9 19 8 19 9 -2 9 -12 1
-23 -5 -25 -11 -9 -26 -35 16 -31 49 5 32 -13 55 -27 33 -5 -9 -9 -9 -14 -1
-12 19 -24 12 -18 -11 5 -20 3 -21 -10 -10 -9 7 -18 22 -21 33 -4 16 -1 20 16
19 38 -4 47 0 41 15 -4 9 0 15 10 15 10 0 13 6 9 16 -3 9 -9 12 -12 7 -22 -30
-39 -34 -76 -19 -47 20 -75 7 -75 -33 0 -23 7 -31 40 -46 22 -10 37 -22 34
-26 -2 -5 3 -34 12 -64 9 -31 14 -59 11 -61 -9 -9 -32 7 -44 31 -9 20 -8 25 3
25 30 0 -1 30 -49 49 -29 11 -45 21 -37 22 20 2 22 2 43 -6 10 -4 17 -3 17 4
0 6 -8 11 -18 11 -10 0 -23 13 -31 31 -9 21 -18 29 -30 25 -12 -4 -11 -2 3 9
19 14 18 15 -12 15 -20 0 -31 -5 -29 -12 1 -8 -7 -12 -20 -10 -17 2 -21 -1
-17 -12 3 -9 1 -16 -5 -16 -6 0 -11 5 -11 10 0 6 -7 10 -15 10 -8 0 -15 7 -15
15 0 8 -5 15 -11 15 -7 0 -9 -10 -4 -28 5 -22 4 -25 -6 -14 -7 6 -24 12 -37
12 -13 0 -20 4 -17 10 5 9 -119 17 -178 12 -11 -1 -17 3 -15 10 3 8 25 14 54
15 122 4 114 0 107 52 -11 89 -22 119 -16 46 l5 -70 -88 -1 c-49 -1 -93 -2
-99 -4 -5 -1 -27 -2 -47 -1 -27 1 -38 5 -38 17 0 8 -5 12 -10 9 -6 -4 -8 -12
-4 -18 3 -7 -4 -1 -15 13 l-21 25 0 -24 c0 -19 -3 -22 -12 -13 -9 9 -8 18 2
37 10 18 11 28 3 33 -6 4 -13 23 -16 42 -3 19 -9 50 -13 69 -6 31 -5 32 14 22
24 -13 62 -15 62 -3 0 4 30 7 67 6 75 -1 115 7 120 23 3 7 -34 10 -110 9 -136
-1 -168 10 -165 58 1 17 -1 48 -6 70 l-7 38 34 -6 c24 -4 36 -3 39 5 5 16 109
13 120 -4 6 -9 11 -7 19 6 8 14 14 16 25 6 11 -9 14 -8 14 5 0 19 8 18 -110
22 -81 3 -97 6 -112 24 -20 25 -25 25 -30 3 -5 -21 -28 76 -28 116 0 17 5 29
13 28 6 0 30 1 51 1 53 3 35 22 -25 26 -48 4 -46 1 -63 113 l-6 42 57 4 58 3
-56 2 -56 2 -13 75 c-7 42 -10 78 -6 82 3 3 6 -1 6 -10 0 -18 21 -16 65 7 l30
16 -43 0 c-26 0 -41 4 -37 10 3 6 15 10 26 10 10 0 19 5 19 10 0 6 -4 10 -10
10 -5 0 -10 5 -10 10 0 6 10 10 23 10 12 0 27 4 32 8 15 11 18 42 5 57 -9 11
7 14 83 20 52 4 101 12 108 17 11 8 11 9 -2 5 -13 -4 -18 2 -21 24 -3 16 -1
29 4 29 5 0 6 14 3 30 -4 22 -1 30 10 30 8 0 15 -8 15 -17 0 -15 2 -16 10 -3
6 10 4 17 -8 24 -9 5 -19 13 -23 18 -7 10 -207 25 -434 32 -257 8 -425 18
-425 25 0 3 65 6 145 6 80 0 145 -3 145 -6 0 -6 139 -11 265 -9 83 1 143 8
165 20 12 6 43 10 70 9 27 -2 52 0 55 2 3 3 -1 6 -8 7 -6 1 -39 6 -72 11 -33
5 -104 12 -157 16 -94 7 -98 8 -98 30 0 14 7 25 18 28 15 4 14 6 -4 12 -16 5
-23 18 -28 52 -11 82 -10 86 24 80 16 -4 32 -2 36 4 4 7 11 6 20 -2 8 -7 14
-7 14 -1 0 14 40 23 59 13 9 -5 25 -5 36 -1 15 5 5 9 -35 14 -116 13 -116 13
-70 15 53 2 90 10 90 21 0 7 -194 27 -214 21 -5 -1 -61 3 -125 9 -142 13 -271
21 -331 20 -37 0 -51 5 -77 30 -39 37 -44 60 -7 31 21 -17 42 -21 103 -22 53
-1 69 -3 51 -9 -23 -7 -23 -8 10 -10 19 -1 40 -1 45 1 23 7 154 5 149 -3 -3
-4 2 -8 10 -8 9 0 16 4 16 9 0 5 48 7 108 6 131 -5 88 12 -53 20 -160 8 -229
17 -214 26 8 4 32 4 52 -1 30 -6 39 -5 48 9 7 12 12 13 15 4 3 -7 15 -13 26
-13 16 0 18 3 9 14 -17 20 -59 26 -65 10 -8 -21 -23 -17 -29 7 -6 21 -10 22
-89 17 -46 -3 -74 -2 -63 2 12 4 -21 10 -85 14 -85 6 -109 12 -127 28 -15 14
-40 22 -79 24 -32 3 -60 7 -63 10 -3 3 -6 24 -7 47 -1 23 -6 55 -13 70 -6 16
-11 38 -11 50 0 23 -20 62 -20 40 0 -7 -6 -10 -14 -7 -11 4 -11 10 -2 29 7 16
13 20 18 12 8 -13 10 -7 12 48 1 29 2 30 53 30 29 0 58 6 64 13 15 14 33 16
24 2 -3 -5 -1 -10 4 -10 6 0 11 7 11 15 0 8 -7 15 -16 15 -13 0 -14 3 -5 14 9
11 5 13 -26 9 -21 -2 -51 1 -68 6 l-30 9 27 1 c24 1 25 3 15 24 -6 13 -20 23
-34 23 -13 1 -27 5 -31 8 -3 4 -6 47 -7 96 -1 49 -4 93 -8 96 -4 4 -7 -2 -7
-14 0 -12 -4 -22 -10 -22 -5 0 -7 7 -4 15 4 8 1 22 -6 30 -11 13 -10 18 6 30
10 8 22 15 27 15 4 0 7 5 7 11 0 5 -4 7 -10 4 -5 -3 -10 -1 -10 4 0 6 9 11 20
11 11 0 20 -7 20 -15 0 -8 5 -15 10 -15 6 0 9 6 8 12 -4 20 42 21 63 2 10 -9
22 -15 25 -11 9 8 -42 78 -51 69 -4 -4 -4 3 -1 16 5 13 3 22 -3 22 -6 0 -11 6
-11 14 0 18 -85 96 -104 96 -10 0 -13 6 -10 15 4 8 3 27 -1 43 -7 25 -8 25
-15 7 -5 -11 -6 -29 -3 -41 3 -13 -5 -32 -21 -51 -32 -38 -76 -131 -76 -161 0
-12 -5 -31 -12 -42 -10 -15 -9 -22 5 -38 12 -13 20 -44 24 -90 l6 -70 -39 4
c-74 8 -382 34 -408 34 -21 0 -26 -5 -26 -25 0 -14 -5 -25 -11 -25 -6 0 -9 12
-7 28 3 26 1 27 -44 30 -25 2 -52 9 -58 17 -9 11 -17 12 -32 4 -13 -7 -49 -9
-97 -5 -42 3 -110 9 -151 12 -41 3 -86 7 -99 9 -14 3 -68 7 -122 11 -97 7 -97
7 -102 -17 -4 -22 -4 -22 -6 4 -1 23 -5 27 -30 27 -28 0 -29 -1 -25 -40 6 -47
-3 -50 -34 -9 -23 28 -23 29 -3 29 28 0 32 40 6 62 -11 10 -15 17 -8 18 7 0
11 17 10 49 -1 27 -5 47 -9 44 -5 -2 -8 1 -8 6 0 7 -7 7 -20 -1 -21 -13 -28
-48 -10 -48 6 0 0 -11 -13 -26 -13 -14 -22 -35 -21 -47 1 -12 3 -28 3 -34 1
-7 8 -13 16 -13 8 0 15 -5 15 -11 0 -6 -9 -8 -22 -3 -13 4 -40 6 -60 6 l-37
-2 2 124 c1 80 6 127 14 135 8 7 14 7 18 1 9 -15 25 -12 25 5 0 8 -9 15 -20
15 -11 0 -20 5 -20 11 0 11 41 2 50 -11 6 -9 50 -23 50 -16 0 2 -7 12 -16 20
-30 31 19 18 59 -15 52 -43 50 -10 -3 41 -22 21 -40 45 -40 54 0 8 -10 21 -22
27 -13 7 -18 14 -11 16 7 3 9 11 6 20 -4 11 -2 14 5 9 7 -4 12 -3 12 3 0 5 -9
12 -19 16 -11 3 -22 14 -25 23 -2 9 -3 2 -1 -15 2 -18 -1 -33 -5 -33 -5 0 -10
15 -12 33 -4 41 -34 47 -65 12z m198 -634 c26 -26 29 -36 29 -90 0 -33 5 -63
10 -66 6 -4 9 -1 8 6 -2 6 3 14 10 16 8 3 12 -8 12 -36 0 -33 -3 -39 -16 -34
-12 4 -15 2 -12 -8 3 -8 11 -13 18 -11 11 3 11 0 0 -13 -11 -13 -10 -18 4 -33
20 -23 21 -33 2 -26 -7 3 -16 -2 -19 -10 -4 -9 -2 -16 2 -16 5 0 8 -8 6 -17
-2 -10 -4 -21 -4 -25 -1 -4 -8 -5 -16 -2 -10 4 -13 14 -9 29 8 30 -14 43 -24
14 -8 -22 -9 -21 -20 9 -8 23 -8 32 0 32 7 0 6 5 -2 15 -6 8 -9 23 -5 35 3 11
5 20 3 21 -2 0 -34 3 -73 6 -38 2 -72 7 -74 9 -7 7 -11 165 -6 191 5 20 11 22
60 20 30 -2 55 1 55 5 0 18 33 6 61 -21z m402 -167 c-4 -10 1 -17 15 -20 11
-3 24 -15 30 -27 9 -18 11 -19 11 -4 1 9 6 17 11 17 6 0 10 9 10 19 0 23 17
31 52 24 19 -4 26 -11 25 -25 -1 -13 -7 -18 -18 -15 -14 4 -17 -2 -14 -37 2
-41 -8 -66 -27 -66 -6 0 -8 9 -5 20 3 13 -1 21 -14 25 -30 10 -39 -3 -39 -51
0 -37 -3 -44 -20 -44 -11 0 -20 5 -20 10 0 6 6 10 13 10 9 0 14 17 16 55 1 30
-2 55 -6 55 -4 0 -9 -10 -10 -22 -5 -65 -9 -78 -25 -78 -24 0 -27 9 -18 55 7
37 8 38 10 10 1 -17 4 -23 7 -13 2 9 0 39 -5 67 -8 46 -8 51 9 51 13 0 16 -5
12 -16z m687 -74 c4 0 15 -11 24 -25 19 -29 12 -53 -10 -34 -11 9 -14 9 -14 0
0 -25 -28 -40 -66 -36 -22 2 -39 4 -39 5 0 1 -10 3 -22 4 -20 2 -23 -2 -23
-33 0 -20 4 -31 8 -25 4 6 36 10 74 10 63 -1 67 0 62 19 -4 11 -3 17 1 12 5
-4 9 -25 9 -47 l1 -40 -80 0 c-58 1 -86 5 -100 17 -20 15 -20 15 2 10 15 -3
20 -1 16 9 -3 8 -11 14 -19 14 -8 0 -14 5 -14 10 0 6 7 10 15 10 8 0 15 7 15
15 0 9 -9 15 -22 15 -13 0 -30 5 -38 10 -13 8 -12 10 3 10 11 0 17 8 17 23 1
21 1 22 15 3 14 -18 15 -19 15 -2 0 12 5 16 16 12 9 -3 34 -6 56 -6 32 0 41
-4 45 -20 3 -12 12 -20 21 -18 20 4 25 55 6 62 -8 3 -14 10 -14 17 0 6 7 8 16
5 9 -3 19 -6 24 -6z m-395 -67 c-5 -23 -5 -24 10 -9 12 12 21 13 35 6 16 -9
19 -8 14 7 -5 15 -4 16 5 3 17 -23 13 -40 -9 -40 -25 0 -27 -35 -2 -49 38 -21
-2 -29 -95 -19 -89 10 -93 12 -93 35 0 16 -7 27 -20 30 -36 9 -21 21 16 13 41
-10 50 -17 57 -45 3 -14 5 -11 6 10 0 17 -6 43 -14 59 -18 34 -18 36 -5 36 6
0 10 -6 10 -14 0 -7 11 -16 25 -18 27 -6 43 6 25 17 -20 12 1 25 21 14 16 -8
19 -17 14 -36z m-1919 -290 c13 -17 13 -17 14 2 1 18 2 18 10 3 17 -28 1 -50
-29 -43 -14 3 -37 9 -50 12 -20 5 -23 3 -18 -11 5 -12 1 -16 -18 -16 -13 0
-26 -4 -30 -9 -3 -6 22 -8 65 -6 61 4 70 2 70 -13 0 -14 -2 -14 -9 -3 -6 9
-16 11 -27 7 -15 -6 -159 -8 -231 -3 -18 1 -16 17 2 17 9 0 12 6 8 16 -5 13
-8 13 -15 2 -8 -11 -9 -10 -6 1 5 18 45 24 80 12 24 -9 32 -7 49 10 13 13 32
20 52 19 53 -3 69 -1 62 10 -11 17 7 11 21 -7z m2854 -53 c0 -5 6 -9 13 -7 14
2 17 -35 4 -44 -10 -7 13 -69 25 -69 5 0 8 -13 8 -30 0 -16 7 -33 16 -38 9 -5
15 -15 12 -23 -3 -10 -11 -6 -29 13 -22 23 -33 26 -88 27 -66 0 -81 8 -81 45
0 11 5 16 14 13 7 -3 13 0 12 6 0 7 4 14 9 17 6 3 14 -12 19 -32 5 -21 13 -38
17 -38 4 0 5 9 2 20 -3 12 -2 20 3 19 26 -5 31 3 25 44 -7 50 -3 87 10 87 5 0
9 -4 9 -10z m-1572 -430 c12 -22 19 -47 16 -55 -4 -8 -3 -32 1 -52 5 -27 9
-33 16 -22 6 10 9 11 9 1 0 -7 -11 -25 -25 -40 -14 -15 -24 -34 -24 -42 1 -11
3 -10 6 3 8 29 22 19 34 -25 6 -24 15 -51 20 -60 5 -10 5 -18 1 -18 -5 0 -7
-64 -6 -142 2 -79 3 -161 4 -183 0 -22 4 -35 8 -28 5 8 13 9 22 3 25 -16 32
-11 26 14 -3 14 -2 28 4 31 6 4 10 -6 10 -24 0 -17 0 -34 0 -38 0 -5 -10 -8
-22 -8 -12 0 -23 -6 -26 -14 -3 -10 0 -12 12 -8 12 5 16 0 17 -21 l1 -27 8 30
c8 31 9 30 15 -20 4 -25 1 -31 -15 -31 -11 0 -20 6 -20 13 0 7 -8 13 -17 13
-15 0 -16 -2 -3 -10 13 -8 13 -11 -2 -22 -14 -11 -16 -24 -11 -75 4 -46 9 -60
19 -56 8 3 14 15 14 27 1 20 1 20 16 -4 8 -14 13 -17 10 -8 -3 10 -1 28 4 40
6 17 9 6 9 -45 l1 -68 -27 3 c-16 1 -31 7 -35 13 -4 5 -8 0 -8 -12 0 -13 -5
-23 -11 -23 -6 0 -8 7 -5 15 7 18 -14 55 -30 55 -24 0 -34 -85 -11 -93 6 -2 9
-7 6 -11 -10 -10 -39 5 -39 20 0 8 -5 14 -11 14 -6 0 -9 -9 -6 -20 4 -17 0
-20 -30 -20 -20 0 -32 4 -28 10 4 6 -5 10 -20 10 -15 0 -24 -4 -20 -10 4 -6
-10 -10 -37 -9 -24 1 -35 3 -26 6 15 4 17 17 15 104 -2 55 1 103 6 106 13 8
98 -7 93 -16 -3 -5 1 -17 9 -27 13 -18 14 -16 15 19 0 23 4 36 10 32 6 -3 10
-45 10 -92 0 -48 2 -84 4 -82 8 8 8 172 0 607 -6 359 -5 412 8 412 8 0 24 -18
36 -40z m1659 -22 c6 -7 16 -65 22 -128 7 -63 17 -148 22 -188 5 -40 9 -95 9
-122 0 -31 6 -54 16 -64 8 -9 11 -16 4 -16 -11 0 -9 -54 7 -185 4 -33 6 -66 4
-73 -1 -8 4 -19 12 -25 16 -13 30 -107 15 -107 -5 0 -11 7 -14 15 -12 29 -24
14 -24 -29 0 -27 5 -46 13 -49 6 -2 -4 -4 -23 -5 -19 -1 -46 4 -59 11 -19 9
-25 9 -28 0 -3 -7 -19 -12 -36 -12 -31 2 -31 2 -4 6 15 2 25 8 22 13 -3 5 -12
7 -19 4 -11 -4 -15 11 -20 68 -8 103 -7 108 23 109 24 2 40 3 84 7 28 3 21 32
-9 32 -14 0 -35 5 -46 11 -15 8 -19 8 -14 0 5 -7 -2 -11 -18 -11 -32 0 -46 25
-44 84 1 50 16 72 25 37 6 -23 8 -23 38 -12 18 7 17 8 -6 14 -16 4 -25 13 -25
26 0 11 4 17 8 15 4 -3 8 -1 8 4 0 5 11 10 25 10 18 0 25 -6 25 -20 0 -10 4
-17 9 -13 5 3 12 -7 14 -22 2 -16 4 -3 5 27 0 66 -14 172 -17 125 -2 -16 -5
-24 -8 -17 -8 21 -23 13 -23 -12 0 -19 -5 -24 -25 -22 -14 0 -25 6 -25 11 0 6
-4 4 -9 -3 -8 -13 -23 31 -35 106 -5 31 -4 32 29 32 34 0 47 -13 23 -23 -8 -3
-6 -6 5 -6 9 -1 17 6 17 14 0 8 9 15 20 15 16 0 20 -7 20 -32 0 -17 3 -28 6
-25 10 10 -18 317 -29 324 -5 3 -7 -7 -3 -23 3 -16 8 -67 11 -113 3 -46 9 -89
12 -95 3 -6 -7 3 -23 19 -28 29 -29 30 -32 8 -3 -18 -10 -23 -32 -23 -24 0
-29 5 -35 37 -4 24 -3 39 4 41 6 2 9 8 6 13 -10 16 15 49 38 49 12 0 28 4 36
9 12 8 12 13 -4 37 -15 24 -19 25 -27 11 -14 -26 -26 -20 -20 9 4 20 1 25 -9
22 -8 -3 -13 -15 -11 -28 3 -15 -1 -21 -10 -18 -7 3 -14 22 -16 44 -2 29 0 35
8 24 8 -12 10 -11 10 7 0 14 10 26 30 35 17 7 30 16 30 20 0 4 6 5 14 2 8 -3
17 -20 19 -37 3 -24 4 -19 5 16 2 47 11 58 29 35z m-1776 -148 c5 0 9 -5 9
-11 0 -8 -12 -10 -35 -6 -41 7 -43 3 -12 -29 26 -28 33 -29 53 -9 9 8 22 15
30 15 17 0 19 -30 2 -31 -10 0 -10 -2 0 -6 7 -3 12 -23 12 -51 0 -30 -3 -42
-9 -34 -6 10 -26 13 -69 10 l-60 -3 1 77 c2 69 4 78 22 81 11 2 26 3 33 1 8
-2 18 -4 23 -4z m475 -170 c75 -36 157 -114 197 -188 30 -56 57 -162 57 -230
0 -24 5 -52 11 -64 16 -30 40 -510 26 -524 -4 -4 -13 -1 -21 5 -9 8 -16 8 -20
2 -4 -6 -16 -7 -29 -2 -12 4 -28 6 -35 3 -13 -4 -33 3 -84 29 -23 12 -28 11
-28 -3 0 -15 -45 -38 -72 -38 -10 0 -18 -6 -19 -12 0 -9 -2 -9 -6 1 -5 11 -7
11 -14 0 -7 -11 -11 -12 -17 -1 -5 7 -15 10 -23 7 -8 -3 -22 0 -31 7 -13 11
-17 62 -27 340 -11 301 -10 329 5 353 13 20 16 47 15 125 -2 119 15 220 36
220 8 0 44 -14 79 -30z m-512 -255 c-4 -8 -1 -15 6 -15 6 0 18 7 26 15 17 17
39 21 29 5 -9 -15 5 -51 17 -44 5 3 8 15 5 25 -3 10 -2 21 3 24 4 2 10 -23 14
-57 9 -89 7 -128 -5 -128 -6 0 -9 7 -5 15 10 28 -5 45 -40 45 -19 0 -34 -4
-34 -8 0 -15 22 -30 36 -25 8 3 14 0 14 -7 0 -7 -15 -10 -42 -8 -36 3 -43 6
-41 23 1 11 0 27 -3 35 -4 12 -6 12 -14 0 -6 -10 -9 0 -8 30 0 24 7 55 15 67
17 26 36 31 27 8z m1944 -72 c-1 -5 2 -26 7 -47 4 -22 8 -69 9 -105 1 -36 4
-70 7 -76 7 -10 22 -169 23 -235 1 -29 -3 -36 -21 -38 -19 -3 -23 1 -23 22 0
16 6 26 15 26 8 0 15 9 15 20 0 19 -5 19 -122 15 -81 -3 -118 -1 -108 5 8 5
59 10 112 10 143 0 135 20 -9 22 l-118 2 111 3 c101 3 112 5 117 23 4 15 0 20
-14 20 -10 0 -19 4 -19 10 0 5 6 7 14 4 12 -5 14 8 9 73 -2 43 -9 102 -14 132
-12 71 -11 121 1 121 6 0 9 -3 8 -7z m-2688 -308 c39 -20 60 -63 60 -120 0
-25 7 -60 16 -77 13 -25 15 -49 9 -127 l-7 -96 -60 0 c-33 0 -62 -4 -65 -9 -3
-4 -8 -4 -12 2 -3 6 -12 12 -20 14 -10 2 -15 -12 -17 -54 -4 -49 -2 -56 13
-53 49 10 393 14 393 5 0 -6 -8 -11 -17 -11 -16 -1 -16 -2 -1 -6 22 -5 30 -45
22 -108 -3 -27 -5 -56 -4 -62 8 -55 -2 -279 -13 -290 -7 -6 -233 -22 -316 -23
-58 0 -63 2 -58 19 3 12 -1 22 -10 25 -22 9 -14 91 9 91 10 0 23 6 30 13 10
10 10 14 -1 21 -9 6 -13 26 -13 56 1 46 12 80 12 37 0 -13 6 -22 15 -22 12 0
14 7 9 28 -4 15 -11 29 -16 30 -4 2 -8 10 -8 18 0 9 5 12 11 8 15 -9 5 34 -22
93 -10 23 -19 47 -19 52 0 6 -7 11 -15 11 -8 0 -15 -7 -15 -17 0 -26 -8 -11
-15 26 -8 45 -12 51 -36 51 -17 0 -18 3 -8 21 8 15 18 20 35 16 18 -3 24 0 24
14 0 22 -4 23 -30 7 -17 -11 -22 -10 -31 2 -14 20 -3 183 15 218 7 15 17 52
21 82 9 69 18 86 58 110 39 24 40 24 77 5z m995 -304 c22 -10 51 -20 65 -24
14 -3 39 -20 55 -37 38 -39 26 -38 -22 2 l-38 32 33 -35 c17 -19 32 -38 32
-41 0 -3 -29 -9 -65 -13 -36 -3 -65 -11 -65 -16 0 -5 5 -10 10 -10 6 -1 15 -2
20 -3 6 0 15 -7 20 -15 7 -12 11 -13 24 -1 23 18 29 7 29 -45 0 -28 4 -44 11
-42 12 5 12 17 1 61 -7 26 -6 27 13 17 18 -10 21 -9 16 4 -4 8 -1 15 5 15 6 0
13 -11 17 -25 3 -14 10 -25 15 -25 5 0 7 11 3 25 -4 18 -1 32 11 45 23 26 29
25 43 -5 21 -45 11 -141 -13 -131 -6 2 -18 0 -25 -4 -8 -5 -19 -2 -27 6 -8 8
-19 12 -24 9 -20 -13 -50 -13 -55 -1 -4 10 -16 11 -47 5 -49 -9 -55 -6 -33 16
19 20 21 37 4 34 -7 -1 -21 -1 -32 0 -14 1 -16 4 -7 14 8 11 6 18 -9 32 -16
15 -22 16 -36 5 -13 -11 -17 -11 -24 0 -14 23 -1 31 36 24 34 -6 35 -6 28 22
-16 75 -25 104 -33 108 -15 10 -79 -55 -97 -98 -16 -39 -22 -44 -42 -39 -22 5
-22 5 -5 -24 14 -26 15 -34 3 -62 -15 -36 -36 -36 -33 0 3 27 -13 52 -39 62
-13 4 -18 1 -19 -11 0 -10 -3 -12 -6 -4 -7 19 -23 14 -17 -5 5 -14 4 -15 -4
-4 -5 7 -15 10 -21 7 -6 -4 -11 -3 -11 1 0 5 18 17 41 27 22 10 55 34 72 53
53 59 75 78 108 89 21 8 19 9 -21 15 -36 5 -29 6 35 7 56 0 92 -5 120 -17z
m330 -226 l7 -55 37 0 36 -1 -47 -44 c-27 -24 -48 -48 -48 -54 0 -20 25 -11
53 19 53 55 56 41 16 -69 -19 -50 -19 -58 -6 -95 9 -23 18 -60 21 -83 5 -38 3
-44 -22 -62 -18 -12 -49 -21 -83 -24 -54 -3 -53 -3 16 -7 l70 -3 -85 -8 c-112
-9 -297 -9 -225 1 l50 7 -61 1 c-87 3 -98 17 -95 130 1 47 3 52 24 53 l22 2
-22 4 c-14 3 -20 9 -16 19 3 10 22 14 60 14 50 0 55 -2 50 -20 -4 -17 0 -20
30 -20 28 0 34 3 31 18 -2 10 -11 16 -21 14 -13 -2 -17 2 -15 15 2 14 -2 17
-21 15 -20 -3 -22 -1 -15 15 5 10 9 44 9 76 0 31 5 57 10 57 6 0 3 5 -5 10 -8
5 -13 10 -10 11 3 0 14 2 25 4 11 1 28 6 38 10 15 6 17 1 17 -49 0 -45 3 -54
15 -50 26 10 20 -62 -7 -80 l-22 -16 27 0 c15 0 27 6 27 13 0 9 2 9 8 0 4 -7
13 -9 19 -5 8 5 9 21 3 52 -5 25 -5 61 -1 80 5 28 12 36 33 38 21 3 27 10 33
39 4 25 2 40 -9 52 -23 25 -20 31 13 31 28 0 30 -2 36 -55z m-1965 17 c19 -23
60 -46 60 -33 0 12 63 23 84 15 9 -3 16 -10 16 -16 0 -5 -4 -7 -9 -4 -5 3 -14
-1 -21 -9 -11 -13 -10 -14 4 -9 12 5 15 2 10 -10 -4 -10 1 -25 12 -37 16 -17
16 -23 5 -42 -10 -15 -10 -22 -2 -25 6 -2 11 -11 11 -20 0 -15 -2 -15 -10 -2
-7 10 -13 11 -17 5 -5 -6 -26 -12 -48 -14 -22 -1 -41 -7 -43 -12 -2 -5 -17 -9
-33 -9 -23 0 -29 4 -29 23 0 67 -12 107 -35 113 -17 4 -21 11 -17 30 3 15 0
24 -8 24 -8 0 -10 8 -6 24 5 20 2 25 -16 29 -13 3 0 3 27 1 34 -2 55 -9 65
-22z m1190 3 c-7 -8 -22 -16 -34 -16 l-21 -2 21 -4 c23 -4 25 -12 40 -116 5
-38 4 -46 -7 -42 -8 3 -27 1 -44 -4 -28 -9 -27 -9 16 -10 51 -1 59 -11 59 -81
0 -30 -8 -43 -50 -82 -31 -29 -50 -55 -51 -70 0 -14 -3 -17 -6 -8 -2 8 -7 22
-10 30 -3 8 -7 20 -8 25 0 6 -4 21 -8 35 -3 14 -9 59 -12 100 -4 41 -8 92 -10
113 -3 26 0 37 9 37 18 0 29 31 16 44 -5 5 -10 21 -10 36 0 24 3 25 62 28 54
3 60 1 48 -13z m306 -67 c-3 -13 -7 -45 -10 -73 -2 -27 -7 -62 -11 -77 -5 -19
-3 -28 5 -28 7 0 9 -8 5 -22 -6 -17 -4 -20 9 -15 9 4 16 3 16 -1 0 -17 -26
-32 -56 -32 -30 0 -32 2 -38 46 -3 26 -6 66 -6 90 0 24 -4 44 -10 44 -10 0
-14 -20 -12 -52 2 -23 -17 -23 -25 -2 -8 22 15 84 39 108 18 17 57 33 86 35 8
1 11 -7 8 -21z m2928 16 c11 -4 14 -13 10 -30 -5 -19 -3 -23 8 -19 11 5 17 -4
21 -31 4 -21 5 -40 2 -42 -4 -4 -154 -4 -191 0 l-22 2 22 27 c11 15 35 35 51
45 17 10 39 26 49 36 22 20 27 21 50 12z m-3388 -251 c-3 -7 -2 -13 3 -13 5 0
16 -21 24 -47 12 -36 13 -49 4 -55 -9 -6 -9 -8 -1 -8 23 0 25 -33 4 -52 -11
-10 -20 -14 -20 -7 0 8 -4 8 -15 -1 -8 -7 -23 -9 -32 -5 -17 7 -16 8 2 15 15
7 16 9 4 9 -30 2 -32 45 -8 160 10 51 12 54 25 36 8 -11 12 -25 10 -32z"/>
<path d="M11 1341 c-10 -6 -11 -19 -4 -52 5 -24 5 -66 2 -94 -4 -27 -7 -122
-7 -210 l0 -160 19 154 c10 84 20 159 23 166 3 8 0 16 -7 19 -9 3 -9 5 1 5 6
1 12 8 12 17 0 8 5 25 12 37 7 12 13 27 15 32 1 6 5 19 8 30 4 13 -1 28 -15
43 -22 24 -37 27 -59 13z"/>
<path d="M767 1143 c-4 -3 -4 -36 -1 -72 3 -37 -1 -129 -10 -212 -9 -81 -14
-154 -10 -163 4 -11 1 -16 -10 -16 -9 0 -16 6 -16 14 0 21 -21 31 -30 15 -5
-7 -7 -16 -4 -21 2 -4 -5 -12 -16 -18 -18 -10 -21 -9 -18 7 2 11 -3 18 -12 18
-10 0 -15 -10 -15 -27 1 -21 -4 -28 -18 -28 -14 0 -18 5 -14 20 3 11 1 20 -4
20 -5 0 -9 -4 -9 -10 0 -18 -22 -10 -42 15 -22 28 -51 32 -88 10 -14 -8 -32
-17 -40 -21 -8 -4 -20 -14 -26 -23 -6 -8 -31 -17 -55 -21 -28 -4 -43 -11 -41
-18 2 -10 -3 -10 -17 -2 -13 7 -18 16 -14 27 5 13 2 15 -19 10 -17 -5 -30 -2
-38 8 -20 25 -37 17 -71 -30 -34 -47 -44 -54 -51 -33 -4 10 -14 8 -41 -7 l-37
-20 0 -81 0 -81 38 0 c51 1 92 -11 92 -27 0 -13 20 -26 40 -26 4 0 14 29 21
65 7 36 16 65 21 65 14 0 9 -47 -12 -94 l-19 -45 26 -21 c14 -11 29 -20 34
-20 4 0 15 -3 23 -6 14 -5 15 -2 6 21 -5 14 -10 34 -9 43 0 9 7 0 15 -21 13
-36 12 -42 -11 -91 -15 -33 -36 -58 -52 -67 -16 -7 -31 -15 -35 -17 -4 -2 -5
8 -3 21 4 18 -1 27 -21 35 -31 15 -37 15 -29 2 3 -6 2 -10 -4 -10 -6 0 -8 -7
-5 -15 4 -8 15 -15 25 -15 16 0 19 -8 19 -51 l0 -52 60 7 60 7 -2 -43 -3 -43
131 -2 c113 -2 133 0 138 13 3 9 3 20 0 25 -3 6 0 16 6 24 9 11 9 15 1 15 -7
0 -9 23 -5 73 4 48 1 87 -8 117 -8 25 -12 53 -10 63 5 26 27 20 39 -10 10 -25
10 -23 6 17 -2 25 -6 52 -9 60 -2 8 8 2 22 -15 26 -28 26 -28 19 -5 -4 14 -14
38 -22 53 -8 16 -15 42 -15 58 -1 18 -6 29 -15 29 -19 0 -11 24 9 28 9 2 19
-6 23 -17 8 -27 25 -27 25 -1 0 11 6 20 14 20 8 0 16 12 18 28 l4 27 8 -29 c7
-24 5 -32 -14 -46 -20 -15 -23 -26 -22 -71 1 -30 5 -66 8 -82 4 -20 2 -27 -10
-27 -9 0 -16 -4 -16 -10 0 -5 9 -10 20 -10 12 0 20 -7 20 -16 0 -10 6 -14 15
-10 8 3 15 1 15 -3 0 -5 -7 -12 -16 -15 -9 -3 -14 -13 -10 -21 3 -8 0 -17 -6
-21 -6 -4 -8 -21 -4 -42 6 -41 -7 -62 -40 -62 -12 0 -25 -4 -28 -9 -7 -11 68
-2 89 10 6 4 32 7 60 8 30 1 56 7 65 17 13 14 13 15 0 14 -50 -7 -57 -1 -55
43 2 23 3 45 4 50 2 14 31 7 31 -7 0 -9 12 -16 27 -18 34 -4 57 -53 33 -68
-27 -17 18 -12 53 6 l32 17 -23 15 c-12 8 -22 18 -22 23 0 5 -9 18 -21 30 -13
13 -19 29 -16 41 3 10 -1 35 -9 55 -17 38 -12 66 8 58 7 -3 18 5 23 17 12 26
35 36 35 14 0 -9 -7 -16 -15 -16 -17 0 -20 -16 -6 -24 5 -4 12 0 14 6 3 7 6 3
6 -9 1 -16 -6 -23 -26 -26 l-28 -4 28 -2 c28 -1 31 -4 41 -54 5 -20 3 -28 -6
-26 -24 3 -38 -1 -38 -11 0 -5 12 -10 28 -11 23 0 24 -2 8 -8 -31 -12 1 -17
64 -10 l55 6 -50 2 c-44 2 -47 4 -27 13 16 8 22 20 22 42 1 41 22 68 52 64 19
-2 23 -9 23 -38 0 -32 -3 -36 -35 -41 -25 -5 -14 -6 35 -7 39 0 63 2 54 5 -22
6 -28 32 -19 83 11 63 30 75 30 19 0 -24 3 -60 6 -80 7 -38 7 -38 -66 -59 -18
-6 -9 -8 33 -9 32 0 56 3 53 8 -3 5 4 11 15 14 12 3 18 10 15 15 -3 6 -1 34 5
64 7 29 14 47 16 41 5 -15 59 -18 67 -4 3 5 -1 11 -9 15 -22 8 -18 52 6 75 13
12 21 33 22 55 1 48 17 46 17 -2 0 -21 6 -44 13 -51 10 -10 8 -15 -6 -26 -16
-11 -16 -16 -5 -34 7 -12 23 -21 38 -21 23 1 24 2 8 14 -23 17 -25 71 -3 62
35 -13 39 76 4 95 -11 5 -19 20 -20 32 0 12 -3 16 -6 9 -3 -7 0 -26 6 -42 15
-44 -3 -37 -19 7 -9 26 -15 32 -18 21 -2 -12 -13 -18 -32 -18 -27 0 -28 -2
-23 -39 8 -61 -50 -129 -59 -68 -2 12 -9 21 -16 19 -9 -2 -9 6 3 27 21 41 20
57 -2 40 -14 -11 -13 -7 3 19 28 45 40 41 36 -13 -2 -28 1 -45 7 -45 6 0 12
14 12 30 2 47 3 50 19 61 12 8 11 9 -6 7 -22 -3 -27 6 -19 33 6 19 42 32 51
18 7 -13 24 -1 24 17 0 8 -9 14 -20 14 -11 0 -20 -3 -20 -7 0 -5 -23 -6 -50
-5 l-50 4 5 46 c3 26 10 86 15 134 5 48 14 96 20 107 15 29 13 54 -5 47 -8 -3
-15 -1 -15 5 0 6 -5 7 -10 4 -6 -4 -8 -26 -4 -55 4 -27 1 -94 -6 -149 -10 -85
-15 -101 -32 -107 -14 -4 -18 -12 -14 -27 3 -12 6 -25 6 -29 0 -5 5 -8 10 -8
6 0 10 11 10 25 0 25 0 25 31 -9 32 -37 32 -58 0 -49 -16 4 -19 1 -14 -16 4
-15 -1 -27 -13 -36 -27 -21 -34 -18 -34 11 0 17 -4 24 -13 21 -8 -3 -14 3 -14
15 -1 10 5 22 13 25 8 3 14 11 14 18 0 20 -38 29 -56 14 -11 -9 -18 -9 -22 -2
-4 6 -17 13 -29 17 -14 4 -23 15 -23 27 0 16 -7 19 -40 19 -38 0 -40 -2 -40
-30 0 -22 -4 -28 -15 -24 -8 4 -15 1 -15 -5 0 -14 -57 -14 -62 0 -10 30 23
318 43 371 20 53 19 85 -1 73 -5 -3 -11 -1 -15 5 -7 12 -19 13 -28 3z m16
-573 c4 -16 13 -30 21 -30 7 0 21 -11 30 -25 9 -14 12 -25 7 -25 -5 0 -13 9
-16 20 -3 11 -13 20 -20 20 -10 0 -12 -9 -8 -35 4 -25 2 -36 -9 -40 -16 -6
-16 -91 0 -123 11 -21 5 -42 -13 -42 -8 0 -15 17 -18 43 -3 23 -7 53 -9 67 -4
30 -21 50 -42 50 -36 0 -11 149 26 163 22 8 45 -11 51 -43z"/>
<path d="M6974 745 c-3 -8 -3 -18 0 -23 3 -5 -4 -16 -14 -25 -13 -11 -22 -13
-26 -6 -4 8 -10 7 -16 -2 -7 -11 -9 -9 -7 6 3 46 -1 55 -25 55 -14 0 -28 -4
-31 -10 -7 -12 16 -59 30 -59 5 0 11 -4 13 -10 2 -6 -3 -8 -11 -5 -13 5 -14 1
-5 -30 11 -36 22 -44 33 -26 3 6 2 10 -3 10 -6 0 -12 6 -15 13 -8 22 37 9 52
-15 7 -11 14 -48 15 -83 2 -38 9 -71 19 -86 16 -22 17 -19 17 87 0 74 -4 114
-12 123 -10 11 -10 13 0 7 9 -5 12 6 12 43 0 49 -14 68 -26 36z"/>
<path d="M4313 552 c20 -22 22 -38 5 -40 -7 -1 -27 -4 -45 -8 -25 -5 -32 -2
-36 13 -4 14 -5 14 -6 -5 0 -12 6 -34 15 -47 16 -25 16 -25 -12 -25 -16 0 -36
-5 -44 -11 -11 -8 -4 -9 28 -7 23 2 42 2 42 1 0 -1 -16 -27 -35 -58 -31 -48
-34 -58 -24 -78 7 -12 16 -25 22 -28 5 -4 -3 -6 -17 -6 -14 0 -26 3 -26 8 0 5
-4 9 -9 9 -5 0 -7 -8 -5 -18 5 -15 15 -16 97 -10 145 10 146 10 102 17 -38 6
-40 8 -41 41 -3 64 9 170 17 164 10 -6 12 50 3 84 -4 14 -14 22 -27 22 -19 0
-19 -1 -4 -18z"/>
</g>
</svg>
